Coordinates
version=1
nRows=16
nColumns=18
inDegrees=yes

Units are S.I. units (second, meters, Newtons, ...)
If the header above contains a line with 'inDegrees', this indicates whether rotational values are in degrees (yes) or radians (no).

endheader
time	ground_thorax_rot_x	ground_thorax_rot_y	ground_thorax_rot_z	ground_thorax_tx	ground_thorax_ty	ground_thorax_tz	clav_prot	clav_elev	scapula_abduction	scapula_elevation	scapula_upward_rot	scapula_winging	plane_elv	shoulder_elv	axial_rot	elbow_flexion	pro_sup
      4.69000000	     -2.92278972	     -4.02557165	     -8.18160882	     -0.00372682	      0.00549029	     -0.00784299	    -38.06570198	      7.00853539	    -13.36717830	     -3.57019355	     52.38443860	     -9.25430862	     34.58059483	     80.03043942	     -9.63933709	      0.00000000	     34.32000000
      4.70000000	     -2.92195938	     -3.85868697	     -8.28181098	     -0.00369339	      0.00555721	     -0.00788996	    -38.25001569	      6.74134762	    -13.82090138	     -3.74962860	     52.08041842	     -9.23404716	     34.57435934	     79.62860798	     -9.86017764	      0.00000000	     34.32000000
      4.71000000	     -2.87579833	     -3.95855254	     -8.24681224	     -0.00361250	      0.00558022	     -0.00785636	    -38.22037003	      6.77240508	    -14.03132876	     -3.70687467	     51.77258840	     -9.20213873	     34.60391867	     79.32105399	     -9.95141973	      0.00000000	     34.32000000
      4.72000000	     -2.79569509	     -3.56038317	     -8.20925351	     -0.00372981	      0.00563358	     -0.00791383	    -38.48228679	      6.84734275	    -14.82300178	     -3.64834413	     51.34532691	     -9.30629055	     34.84071469	     79.08420129	    -10.58801248	      0.00000000	     34.32000000
      4.73000000	     -2.52859857	     -3.59589275	     -8.24211145	     -0.00365668	      0.00579274	     -0.00763908	    -38.43035627	      6.81584994	    -14.88698692	     -3.65291160	     51.14837626	     -9.25407604	     34.76959823	     78.90263720	    -10.59933122	      0.00000000	     34.32000000
      4.74000000	     -2.60537178	     -3.48874883	     -8.17843150	     -0.00370536	      0.00562485	     -0.00771158	    -38.31612849	      6.83091893	    -15.05576433	     -3.60427216	     50.71608890	     -9.16324391	     34.48378415	     78.44322744	    -10.63382332	      0.00000000	     34.32000000
      4.75000000	     -2.38294977	     -3.52076145	     -8.19081750	     -0.00366915	      0.00563415	     -0.00760357	    -38.27849664	      6.78886812	    -15.11072405	     -3.61895849	     50.55431310	     -9.11734285	     34.42367465	     78.29163310	    -10.64253769	      0.00000000	     34.32000000
      4.76000000	     -2.65934661	     -3.42241079	     -8.13052260	     -0.00366064	      0.00565635	     -0.00796194	    -38.24402455	      6.55483692	    -15.31514079	     -3.74698895	     50.13044116	     -8.98911728	     34.26675195	     77.80528686	    -10.68139561	      0.00000000	     34.32000000
      4.77000000	     -2.57655012	     -3.49824451	     -8.22948631	     -0.00355019	      0.00559116	     -0.00793937	    -38.19752201	      6.53454386	    -15.47330302	     -3.73536517	     49.83122492	     -8.93033837	     34.17949169	     77.56834441	    -10.69045772	      0.00000000	     34.32000000
      4.78000000	     -2.51481506	     -3.56170546	     -8.21727367	     -0.00359889	      0.00563576	     -0.00775891	    -38.10425139	      6.50081027	    -15.67974270	     -3.71654203	     49.37193404	     -8.82811175	     34.05032293	     77.24792514	    -10.69681831	      0.00000000	     34.32000000
      4.79000000	     -2.43920663	     -3.60806906	     -8.16892090	     -0.00373164	      0.00571456	     -0.00756023	    -37.99777834	      6.45834633	    -15.90245621	     -3.69739893	     48.86168564	     -8.71008776	     33.87801141	     76.94867407	    -10.69980329	      0.00000000	     34.32000000
      4.80000000	     -2.50368873	     -3.44911392	     -8.12900245	     -0.00380174	      0.00584826	     -0.00765307	    -37.94376612	      6.19491464	    -16.37436169	     -3.80796692	     48.04847996	     -8.51248179	     33.77616074	     76.89536631	    -10.70266637	      0.00000000	     34.32000000
      4.81000000	     -2.44431181	     -3.43134342	     -8.11143727	     -0.00372241	      0.00582603	     -0.00764000	    -37.90300869	      6.12937841	    -16.61457683	     -3.81464359	     47.63669730	     -8.42449139	     33.71339095	     76.55268554	    -10.74438941	      0.00000000	     34.32000000
      4.82000000	     -2.16949598	     -3.48087266	     -8.12968070	     -0.00368916	      0.00585919	     -0.00742757	    -37.86156574	      6.08444408	    -16.68836481	     -3.82530522	     47.44112486	     -8.36824024	     33.64251500	     76.37261283	    -10.75505405	      0.00000000	     34.32000000
      4.83000000	     -2.28974150	     -3.46400653	     -8.02945087	     -0.00385843	      0.00584627	     -0.00737184	    -37.79664276	      5.90328827	    -16.82827642	     -3.91113351	     47.05585720	     -8.23626288	     33.46947487	     75.89424363	    -10.82912954	      0.00000000	     34.32000000
      4.84000000	     -2.06288482	     -3.52964506	     -8.02571314	     -0.00401683	      0.00587592	     -0.00721634	    -37.77119747	      5.85337857	    -16.89655302	     -3.92920956	     46.89696498	     -8.18947795	     33.40077531	     75.73991498	    -10.84173585	      0.00000000	     34.32000000
